<svg width="183" height="201" viewBox="0 0 183 201" fill="none" xmlns="http://www.w3.org/2000/svg">
<path d="M182.259 91.1691C182.259 141.444 141.504 182.199 91.2291 182.199C40.9543 182.199 0.199219 141.444 0.199219 91.1691C0.199219 40.8943 40.9543 0.139282 91.2291 0.139282C141.504 0.139282 182.259 40.8943 182.259 91.1691Z" fill="#1C1C1C"/>
<path d="M175.934 90.9933C175.934 137.677 138.09 175.521 91.4066 175.521C44.7234 175.521 6.87891 137.677 6.87891 90.9933C6.87891 44.31 44.7234 6.46558 91.4066 6.46558C138.09 6.46558 175.934 44.31 175.934 90.9933Z" fill="#F4F4F4"/>
<path d="M91.4066 6.46558C44.7234 6.46558 6.87891 44.31 6.87891 90.9933C6.87891 137.677 44.7234 175.521 91.4066 175.521C138.09 175.521 175.934 137.677 175.934 90.9933C175.934 44.31 138.09 6.46558 91.4066 6.46558ZM91.4066 15.6284C101.585 15.6284 111.454 17.6192 120.739 21.5471C129.712 25.3432 137.773 30.7786 144.698 37.7022C151.621 44.6272 157.057 52.6876 160.853 61.6609C164.781 70.946 166.772 80.8145 166.772 90.9933C166.772 101.172 164.781 111.041 160.853 120.326C157.057 129.299 151.621 137.359 144.698 144.284C137.773 151.208 129.712 156.643 120.739 160.44C111.454 164.367 101.585 166.358 91.4066 166.358C81.2278 166.358 71.3593 164.367 62.0743 160.44C53.1009 156.643 45.0405 151.208 38.1155 144.284C31.1919 137.359 25.7565 129.299 21.9604 120.326C18.0325 111.041 16.0418 101.172 16.0418 90.9933C16.0418 80.8145 18.0325 70.946 21.9604 61.6609C25.7565 52.6876 31.1919 44.6272 38.1155 37.7022C45.0405 30.7786 53.1009 25.3432 62.0743 21.5471C71.3593 17.6192 81.2278 15.6284 91.4066 15.6284Z" fill="#91E2BE"/>
<path d="M68.0765 110.351C64.636 109.432 61.9671 106.451 61.6211 102.697L60.2276 87.5734C59.9228 84.2647 61.5181 81.0672 64.3477 79.3236L80.1541 69.5731C80.9243 69.0981 81.3925 68.2551 81.3883 67.349L81.3815 65.3734C81.3774 64.5894 80.6415 64.0128 79.8795 64.1995L60.5543 68.9306C55.5267 70.1621 50.4634 67.0387 49.6039 61.9342C48.8502 57.4558 51.6716 53.0871 56.1541 51.9902L87.8658 44.2263C89.6286 43.7939 91.4944 43.8556 93.1886 44.5091C96.6634 45.8505 98.8148 49.1208 98.8299 52.6574L98.9164 73.6218C98.9287 76.6834 97.3485 79.5309 94.7427 81.1372L78.1716 91.3586C78.1606 91.3654 78.1537 91.3791 78.1551 91.3929L79.0255 100.843C79.5006 105.988 75.5493 110.612 70.3817 110.645C69.5881 110.651 68.8152 110.548 68.0765 110.351Z" fill="#4C4C4C"/>
<path d="M64.2113 108.243C60.7708 107.323 58.1018 104.342 57.7559 100.589L56.3623 85.4647C56.0576 82.1559 57.6529 78.9584 60.4825 77.2148L76.2889 67.4643C77.0591 66.9893 77.5272 66.1463 77.5231 65.2402L77.5162 63.2646C77.5121 62.4807 76.7762 61.904 76.0143 62.0908L56.6891 66.8218C51.6615 68.0533 46.5982 64.9299 45.7387 59.8254C44.985 55.347 47.8063 50.9784 52.2889 49.8814L84.0005 42.1176C85.7634 41.6851 87.6291 41.7469 89.3233 42.4004C92.7982 43.7417 94.9495 47.012 94.9646 50.5486L95.0511 71.5131C95.0635 74.5747 93.4833 77.4221 90.8775 79.0284L74.3064 89.2498C74.2954 89.2567 74.2885 89.2704 74.2899 89.2841L75.1603 98.7339C75.6353 103.88 71.6841 108.504 66.5164 108.537C65.7229 108.542 64.9499 108.439 64.2113 108.243Z" fill="#ED6A5A"/>
<path d="M64.2113 108.243C60.7708 107.323 58.1018 104.342 57.7559 100.589L56.3623 85.4647C56.0576 82.1559 57.6529 78.9584 60.4825 77.2148L76.2889 67.4643C77.0591 66.9893 77.5272 66.1463 77.5231 65.2402L77.5162 63.2646C77.5121 62.4807 76.7762 61.904 76.0143 62.0908L56.6891 66.8218C51.6615 68.0533 46.5982 64.9299 45.7387 59.8254C44.985 55.347 47.8063 50.9784 52.2889 49.8814L84.0005 42.1176C85.7634 41.6851 87.6291 41.7469 89.3233 42.4004C92.7982 43.7417 94.9495 47.012 94.9646 50.5486L95.0511 71.5131C95.0635 74.5747 93.4833 77.4221 90.8775 79.0284L74.3064 89.2498C74.2954 89.2567 74.2885 89.2704 74.2899 89.2841L75.1603 98.7339C75.6353 103.88 71.6841 108.504 66.5164 108.537C65.7229 108.542 64.9499 108.439 64.2113 108.243Z" stroke="white" stroke-miterlimit="10"/>
<path d="M77.8286 128.094C76.7412 132.162 72.5621 134.579 68.4928 133.492C64.4234 132.406 62.0071 128.225 63.0945 124.157C64.1804 120.088 68.361 117.67 72.4289 118.758C76.4982 119.845 78.9159 124.024 77.8286 128.094ZM129.885 65.1234L108.468 113.97L129.885 65.1234ZM140.859 69.9341L114.657 116.472C112.826 119.726 108.682 121.019 105.434 119.175C102.626 117.583 101.414 114.257 102.375 111.299L118.823 60.5887C121.004 53.8614 128.27 50.2273 134.838 52.8454C140.679 55.1753 143.789 61.6733 141.82 67.7416C141.576 68.4967 141.23 69.2655 140.859 69.9341Z" fill="#4C4C4C"/>
<path d="M99.8557 106.235L99.8558 106.235L116.303 55.5246C117.884 50.6546 122.292 47.3953 127.265 47.3953C128.682 47.3953 130.082 47.6656 131.424 48.2013L131.424 48.2013C136.96 50.4087 139.856 56.585 138.015 62.2618L138.015 62.2624C137.799 62.9299 137.475 63.6672 137.107 64.3332C137.106 64.3338 137.106 64.3343 137.106 64.3349L110.907 110.868C109.791 112.847 107.709 114.073 105.476 114.073C104.471 114.073 103.478 113.811 102.605 113.316C100.135 111.913 98.979 108.935 99.8557 106.235Z" fill="#91E2BE" stroke="#F4F4F4"/>
<path d="M127.265 46.7196C122.136 46.7196 117.36 50.0819 115.663 55.3154L99.2138 106.027C98.2527 108.985 99.4664 112.311 102.273 113.903C103.286 114.479 104.387 114.749 105.477 114.749C107.881 114.749 110.236 113.438 111.496 111.199L137.698 64.6623C138.069 63.9936 138.415 63.2234 138.659 62.4697C140.628 56.4014 137.518 49.9034 131.675 47.5736C130.218 46.9928 128.729 46.7196 127.265 46.7196ZM127.265 47.0711C128.726 47.0711 130.166 47.3498 131.546 47.9003C137.241 50.1711 140.219 56.5236 138.324 62.3612C138.1 63.0532 137.768 63.8097 137.392 64.4906L111.19 111.027C110.02 113.106 107.83 114.398 105.477 114.398C104.416 114.398 103.367 114.122 102.447 113.598C99.8426 112.12 98.6234 108.981 99.5488 106.135L115.996 55.4253C117.616 50.4279 122.146 47.0711 127.265 47.0711Z" fill="#F4F4F4"/>
<path d="M108.389 132.92C107.302 136.989 103.123 139.407 99.0532 138.319C94.9853 137.232 92.5676 133.053 93.6549 128.984C94.7423 124.916 98.9214 122.498 102.991 123.585C107.059 124.671 109.476 128.852 108.389 132.92Z" fill="#4C4C4C"/>
<path d="M74.3169 125.633C73.2295 129.701 69.0504 132.119 64.981 131.032C60.9117 129.946 58.4954 125.765 59.5827 121.697C60.6687 117.628 64.8492 115.21 68.9172 116.298C72.9865 117.385 75.4042 121.564 74.3169 125.633Z" fill="#ED6A5A"/>
<path d="M74.3169 125.633C73.2295 129.701 69.0504 132.119 64.981 131.032C60.9117 129.946 58.4954 125.765 59.5827 121.697C60.6687 117.628 64.8492 115.21 68.9172 116.298C72.9865 117.385 75.4042 121.564 74.3169 125.633Z" stroke="white" stroke-miterlimit="10"/>
<path d="M95.7138 135.206L95.714 135.206C96.3041 135.363 96.9101 135.444 97.5137 135.444C100.652 135.444 103.411 133.323 104.222 130.285L104.222 130.284C104.703 128.491 104.454 126.62 103.524 125.012L103.524 125.012C102.595 123.405 101.097 122.257 99.3026 121.777C98.7115 121.619 98.1069 121.54 97.5028 121.54C94.3647 121.54 91.6053 123.66 90.7931 126.697L95.7138 135.206ZM95.7138 135.206C93.9198 134.726 92.4215 133.578 91.4925 131.972L91.4925 131.972M95.7138 135.206L91.4925 131.972M91.4925 131.972C90.5621 130.363 90.3139 128.493 90.7931 126.697L91.4925 131.972Z" fill="#91E2BE" stroke="#F4F4F4"/>
<path d="M97.5009 120.864C94.1317 120.864 91.0495 123.114 90.1393 126.523C89.0519 130.592 91.4696 134.771 95.5376 135.859C96.198 136.034 96.8597 136.12 97.5105 136.12C100.88 136.12 103.963 133.869 104.873 130.459C105.961 126.391 103.543 122.211 99.4751 121.125C98.8147 120.948 98.153 120.864 97.5009 120.864ZM97.5009 121.215C98.1338 121.215 98.7667 121.299 99.3845 121.464C103.259 122.499 105.569 126.494 104.534 130.368C103.684 133.548 100.797 135.768 97.5105 135.768C96.8789 135.768 96.246 135.684 95.6282 135.52C91.7538 134.484 89.4432 130.489 90.4784 126.614C91.3282 123.435 94.2155 121.215 97.5009 121.215Z" fill="#F4F4F4"/>
<path d="M17.3637 166.027C17.8086 166.198 18.1628 166.496 18.4195 166.898C18.7339 167.388 18.9453 167.706 19.0483 167.862C21.212 166.703 23.1245 165.907 24.7761 165.441C24.7857 165.128 24.9093 164.848 25.1029 164.608C25.3006 164.363 25.5449 164.196 25.8374 164.146C26.4923 163.998 27.0208 164.219 27.4437 164.808C27.5727 164.988 27.6386 165.079 27.7704 165.259C27.8981 165.34 28.0189 165.456 28.1329 165.609C28.229 165.736 28.3086 165.89 28.3732 166.067C29.9493 168.087 30.7881 169.046 32.5537 170.857C32.9285 171.251 33.0781 171.707 32.9944 172.215C32.9079 172.74 32.6278 173.102 32.1597 173.28C30.2417 174.04 27.8569 175.521 25.0177 177.771C24.7267 177.981 24.3491 178.035 23.8878 177.936C23.4361 177.84 23.0449 177.607 22.736 177.23C22.4408 176.872 22.2733 176.434 22.2829 175.97C22.2911 175.511 22.482 175.156 22.8046 174.944C25.2086 173.223 27.2625 171.995 28.9566 171.238C27.9187 170.086 27.4149 169.491 26.4442 168.265C24.8297 168.786 22.8952 169.701 20.6477 171.039C20.5352 171.702 20.1549 172.085 19.5412 172.105C18.9234 172.127 18.355 171.799 17.9156 171.18C17.8909 171.144 17.8786 171.126 17.8525 171.092C17.7399 170.964 17.6534 170.823 17.5834 170.706C17.372 170.359 17.1372 170.084 17.0068 169.915C16.7377 169.569 16.4027 169.067 16.0045 168.442C15.7355 168.024 15.6133 167.555 15.6572 167.072C15.6984 166.622 15.9057 166.294 16.2256 166.095C16.5455 165.894 16.9354 165.863 17.3637 166.027ZM35.7114 175.159C36.288 174.881 36.8248 174.951 37.341 175.358C37.779 175.704 38.0069 176.146 37.9891 176.666C37.9698 177.215 37.7117 177.626 37.2326 177.854C35.3997 178.838 33.1976 180.58 30.6453 183.126C30.3872 183.396 30.0234 183.511 29.5552 183.466C29.0569 183.418 28.6422 183.211 28.3237 182.892C27.9736 182.541 27.7622 182.122 27.7306 181.655C27.7018 181.209 27.8254 180.851 28.1041 180.587C31.0064 177.979 33.5545 176.191 35.7114 175.159ZM39.6668 182.62C39.6709 181.657 39.7546 180.724 39.907 179.828C39.9825 179.32 40.2997 179.003 40.7651 178.823C41.2237 178.647 41.6822 178.673 42.1092 178.952C42.6652 179.317 42.9068 179.8 42.797 180.428C42.5842 182.042 42.6268 183.669 42.9549 185.294C44.8179 184.846 46.1099 184.092 46.8938 183.146C47.1121 182.903 47.4018 182.745 47.7615 182.67C48.0937 182.6 48.4081 182.655 48.6978 182.8C49.0973 183.001 49.3843 183.315 49.5065 183.754C49.6273 184.187 49.5518 184.589 49.2758 184.943C48.2269 186.307 46.4613 187.446 43.8514 188.151C44.2674 189.083 44.7768 190.055 45.3891 191.057C45.6211 191.428 45.6897 191.793 45.5991 192.15C45.4975 192.544 45.2559 192.824 44.8619 192.976C44.4692 193.129 44.0313 193.13 43.5906 192.961C43.1512 192.794 42.8011 192.505 42.5609 192.137C41.2346 189.96 40.4054 187.798 40.0059 185.715C38.3954 186.244 37.2697 186.871 36.7521 187.673C36.564 187.967 36.2358 188.155 35.7828 188.183C35.338 188.212 34.9151 188.083 34.5417 187.821C34.1669 187.557 33.8882 187.181 33.7673 186.731C33.6589 186.33 33.7316 185.955 33.9486 185.666C34.9906 184.282 36.9662 183.352 39.6668 182.62ZM51.8075 184.786C52.1933 184.644 52.5859 184.647 52.9827 184.786C55.8878 185.925 57.3815 186.4 60.4225 187.141C60.9442 187.273 61.3465 187.578 61.5456 188.03C61.7501 188.492 61.6925 188.981 61.3891 189.4C60.1548 191.101 58.9247 193.637 57.7385 197.04C57.6355 197.399 57.3348 197.651 56.89 197.817C56.452 197.979 55.9839 197.993 55.5363 197.838C55.0915 197.683 54.7345 197.401 54.5066 196.995C54.287 196.606 54.2444 196.232 54.3789 195.873C55.5061 193.097 56.5852 190.942 57.6012 189.392C55.296 188.741 54.1606 188.358 51.9338 187.485C51.537 187.346 51.224 187.07 51.04 186.679C50.867 186.307 50.8588 185.907 51.0016 185.537C51.1375 185.184 51.4162 184.928 51.8075 184.786ZM65.3829 189.083C65.7206 188.54 66.2135 188.313 66.8684 188.38C67.4271 188.437 67.8582 188.69 68.1246 189.139C68.406 189.614 68.4074 190.099 68.1232 190.546C67.0963 192.359 66.1654 195.01 65.3719 198.526C65.2991 198.892 65.052 199.183 64.6319 199.396C64.1829 199.621 63.7216 199.668 63.2809 199.569C62.7977 199.461 62.3954 199.22 62.1194 198.843C61.8572 198.48 61.7707 198.112 61.8641 197.742C62.9185 193.983 64.1129 191.111 65.3829 189.083ZM71.5225 189.316C71.8575 189.035 72.2255 188.902 72.6332 188.914C75.8143 188.996 77.422 188.929 80.636 188.565C81.2099 188.505 81.6959 188.649 82.0418 189.006C82.4043 189.379 82.5196 189.846 82.3741 190.346C81.7837 192.37 81.4899 195.177 81.5394 198.781C81.5531 199.154 81.3458 199.496 80.9723 199.807C80.6044 200.111 80.1555 200.287 79.6681 200.295C79.1821 200.304 78.7386 200.164 78.3748 199.862C78.0274 199.572 77.8654 199.234 77.8929 198.85C77.9931 195.857 78.2732 193.461 78.7111 191.654C76.244 191.842 75.0139 191.871 72.5687 191.809C72.1513 191.815 71.7656 191.664 71.4484 191.358C71.1423 191.061 70.9844 190.686 70.9981 190.295C71.0105 189.923 71.1972 189.588 71.5225 189.316ZM70.302 195.045C70.3679 194.713 70.5794 194.414 70.9295 194.172C71.2686 193.939 71.6695 193.852 72.0813 193.878C72.5756 193.909 73.0108 194.082 73.3348 194.432C73.6355 194.757 73.7535 195.15 73.6808 195.585C73.5394 196.42 73.3581 197.624 73.2112 199.131C73.1755 199.498 72.9669 199.822 72.5687 200.081C72.1445 200.357 71.6887 200.456 71.2356 200.408C70.7359 200.356 70.3061 200.164 69.9863 199.819C69.6801 199.491 69.5469 199.128 69.6018 198.755C69.8325 197.201 70.0879 195.947 70.302 195.045Z" fill="#91E2BE"/>
</svg>
