<svg width="1026" height="1035" viewBox="0 0 1026 1035" fill="none" xmlns="http://www.w3.org/2000/svg">
<path d="M1025.2 449.28L960.49 606.12V775.93L868.53 829.03L828.13 926.94L660.24 949.28L513 1034.29L420.92 981.13L315.93 995.1L212.63 860.87L65.5198 775.93V669.7L0.799805 585.6L65.5198 428.73V259.22L157.33 206.21L197.87 107.95L366.35 85.5299L513 0.859863L604.71 53.8099L710.07 39.7899L813.73 174.49L960.49 259.22V365.19L1025.2 449.28Z" fill="#F4F4F4"/>
<path d="M468.26 847.19L457.51 890.69C444.07 894.15 427.23 883.01 425.43 877.44L243.53 331.42C241.19 324.16 242.1 316.13 246.09 308.79L276.66 252.6L468.26 847.19Z" fill="#211F20"/>
<path d="M457.51 890.69L726.63 809.77C733.35 807.64 738.76 802.6 741.37 796.04L763.84 739.47L464.03 836.08L457.51 890.69Z" fill="#211F20"/>
<path d="M744.5 757.03L483.17 841.24C467.07 846.43 449.81 837.58 444.63 821.48L270.16 280.04C264.97 263.94 273.82 246.68 289.92 241.5L551.25 157.29C567.35 152.1 584.61 160.95 589.79 177.05L764.26 718.5C769.44 734.59 760.6 751.84 744.5 757.03Z" fill="#4C4C4C"/>
<path d="M641.66 752.1L572.23 774.48L479.77 487.55L549.2 465.18L641.66 752.1Z" fill="url(#paint0_linear_5_637)"/>
<path d="M663.12 404.65L343.49 507.65L270.15 280.05C264.96 263.95 273.81 246.69 289.91 241.51L551.24 157.3C567.34 152.11 584.6 160.96 589.78 177.06L663.12 404.65Z" fill="#ED6A5A"/>
<defs>
<linearGradient id="paint0_linear_5_637" x1="522.267" y1="504.272" x2="602.029" y2="743.943" gradientUnits="userSpaceOnUse">
<stop stop-color="white"/>
<stop offset="0.2061" stop-color="#FCFDFE"/>
<stop offset="0.3364" stop-color="#F4F7FB"/>
<stop offset="0.4456" stop-color="#E5EDF5"/>
<stop offset="0.5431" stop-color="#D0DFEE"/>
<stop offset="0.6329" stop-color="#B5CCE4"/>
<stop offset="0.7159" stop-color="#95B6D8"/>
<stop offset="0.7943" stop-color="#6E9CCA"/>
<stop offset="0.7989" stop-color="#6C9AC9"/>
<stop offset="1" stop-color="#6C9AC9"/>
</linearGradient>
</defs>
</svg>
