<svg width="755" height="41" viewBox="0 0 755 41" fill="none" xmlns="http://www.w3.org/2000/svg">
<path d="M41.0378 41H30.5003V15.3461H15.3839V41H0.0793584V30.4625H4.84634V4.80854H41.0378V41ZM55.8219 20.1131H45.2844V4.80854H55.8219V20.1131ZM97.8104 41H85.3284L74.9791 26.5109L70.4002 30.4625V41H59.8627V25.4446L69.1458 18.0432L59.8627 4.80854H72.2192L82.6313 19.4231L86.7711 15.7224V4.80854H97.3086V20.364L88.6528 28.0162L97.8104 41ZM141.524 41H101.883V30.4625H126.407V15.3461H101.883V4.80854H136.945V30.4625H141.524V41ZM183.45 41H145.189V30.4625H163.818L145.189 4.80854H157.671L171.658 24.3783V4.80854H182.133V25.1937H172.097L183.45 41ZM254.762 41H244.224V15.3461H218.57V4.80854H254.762V41ZM229.108 41H218.57V23.8765H229.108V41ZM296.578 41H284.096L273.746 26.5109L269.168 30.4625V41H258.63V25.4446L267.913 18.0432L258.63 4.80854H270.987L281.399 19.4231L285.538 15.7224V4.80854H296.076V20.364L287.42 28.0162L296.578 41ZM311.187 41H300.65V4.80854H311.187V41ZM352.172 41H315.228V30.4625H341.698V15.3461H329.216V23.751H318.678V15.3461H315.228V4.80854H352.172V41ZM389.456 41H378.919V15.3461H355.962V4.80854H389.456V41ZM429.702 28.079L418.349 41H404.926L419.164 24.8801V15.3461H393.51V0.0415514H404.048V4.80854H429.702V28.079ZM498.426 41H487.888V15.3461H464.932V4.80854H498.426V41ZM539.424 41H502.48V30.4625H528.949V15.3461H516.467V23.751H505.93V15.3461H502.48V4.80854H539.424V41ZM579.405 30.8388L569.871 41H543.213V4.80854H579.405V30.8388ZM568.867 27.2636V15.3461H553.751V30.4625H565.418L568.867 27.2636ZM619.465 41H608.927V15.3461H583.273V4.80854H619.465V41ZM593.811 41H583.273V23.8765H593.811V41ZM695.653 41H685.116V15.3461H669.999V41H654.695V30.4625H659.462V4.80854H695.653V41ZM710.437 20.1131H699.9V4.80854H710.437V20.1131ZM754.119 41H714.478V30.4625H739.003V15.3461H714.478V4.80854H749.54V30.4625H754.119V41Z" fill="white"/>
</svg>
