<svg width="892" height="173" viewBox="0 0 892 173" fill="none" xmlns="http://www.w3.org/2000/svg">
<path d="M78.8679 93.886V172.039H0.715332V0.102926H78.8679L110.129 78.2555V0.102926H188.281V172.039H110.129L78.8679 93.886ZM282.065 125.147H313.326V46.9945H282.065V125.147ZM203.912 172.039V0.102926H391.478V172.039H203.912ZM485.261 93.886V172.039H407.109V0.102926H485.261L516.522 78.2555V0.102926H594.675V172.039H516.522L485.261 93.886ZM688.458 0.102926V172.039H610.305V0.102926H688.458ZM782.241 93.886V172.039H704.088V0.102926H782.241L813.502 78.2555V0.102926H891.655V172.039H813.502L782.241 93.886Z" fill="#ED6A5A"/>
</svg>
