<svg width="379" height="481" viewBox="0 0 379 481" fill="none" xmlns="http://www.w3.org/2000/svg">
<path d="M135.7 272.1C135.7 272.1 82.6101 466.61 206.19 411.74C329.77 356.87 163.36 230.61 337.35 280.13C511.34 329.65 385.53 474.2 385.53 474.2" stroke="#3288D6" stroke-width="20" stroke-miterlimit="10"/>
<path d="M173.62 115.51L169.27 150.28L151.76 290.4H111.61L101.77 161.9L98.2202 115.51H173.62Z" fill="#7F7F7F"/>
<path d="M173.62 115.51L169.27 150.28C158.75 157.61 146 161.91 132.28 161.91H102.22C102.07 161.91 101.92 161.91 101.77 161.9L98.2202 115.52H173.62V115.51Z" fill="#4A4B4C"/>
<path d="M120.52 16.0303H0.0703125V120.87H120.52V16.0303Z" fill="#999999"/>
<path d="M92.8705 11.5701H83.5005V133.81H92.8705V11.5701Z" fill="#4A4B4C"/>
<path d="M132.28 146.3H102.21C95.1001 146.3 89.29 140.49 89.29 133.38V13.3301C89.29 6.22008 95.1001 0.410156 102.21 0.410156H132.28C168.02 0.410156 197.26 29.6501 197.26 65.3901V81.3201C197.26 117.06 168.02 146.3 132.28 146.3Z" fill="#7F7F7F"/>
<path d="M53.1603 34.77H0.0703125V95.89H53.1603V34.77Z" fill="#797A7A"/>
<path d="M24.1603 11.5701H0.0703125V22.2802H24.1603V11.5701Z" fill="#999999"/>
<path d="M24.1603 115.51H0.0703125V126.22H24.1603V115.51Z" fill="#999999"/>
</svg>
